{
	"asset":{
		"generator":"Khronos glTF Blender I/O v3.6.27",
		"version":"2.0"
	},
	"scene":0,
	"scenes":[
		{
			"name":"Scene",
			"nodes":[
				0
			]
		}
	],
	"nodes":[
		{
			"mesh":0,
			"name":"Human",
			"rotation":[
				-0.001180227380245924,
				0.011807466857135296,
				0.023166246712207794,
				0.9996612668037415
			]
		}
	],
	"meshes":[
		{
			"name":"Cube.001",
			"primitives":[
				{
					"attributes":{
						"POSITION":0,
						"NORMAL":1,
						"TEXCOORD_0":2
					},
					"indices":3
				}
			]
		}
	],
	"accessors":[
		{
			"bufferView":0,
			"componentType":5126,
			"count":326,
			"max":[
				0.7006785869598389,
				4.316526412963867,
				0.416205495595932
			],
			"min":[
				0,
				-0.023539602756500244,
				-0.1478332281112671
			],
			"type":"VEC3"
		},
		{
			"bufferView":1,
			"componentType":5126,
			"count":326,
			"type":"VEC3"
		},
		{
			"bufferView":2,
			"componentType":5126,
			"count":326,
			"type":"VEC2"
		},
		{
			"bufferView":3,
			"componentType":5123,
			"count":492,
			"type":"SCALAR"
		}
	],
	"bufferViews":[
		{
			"buffer":0,
			"byteLength":3912,
			"byteOffset":0,
			"target":34962
		},
		{
			"buffer":0,
			"byteLength":3912,
			"byteOffset":3912,
			"target":34962
		},
		{
			"buffer":0,
			"byteLength":2608,
			"byteOffset":7824,
			"target":34962
		},
		{
			"buffer":0,
			"byteLength":984,
			"byteOffset":10432,
			"target":34963
		}
	],
	"buffers":[
		{
			"byteLength":11416,
			"uri":"data:application/octet-stream;base64,"
		}
	]
}
